<?xml version="1.0" standalone="no"?>
<!DOCTYPE svg PUBLIC "-//W3C//DTD SVG 20010904//EN"
 "http://www.w3.org/TR/2001/REC-SVG-20010904/DTD/svg10.dtd">
<svg version="1.0" xmlns="http://www.w3.org/2000/svg"
 width="512.000000pt" height="512.000000pt" viewBox="0 0 512.000000 512.000000"
 preserveAspectRatio="xMidYMid meet">
<metadata>
Created by potrace 1.11, written by Peter Selinger 2001-2013
</metadata>
<g transform="translate(0.000000,512.000000) scale(0.100000,-0.100000)"
fill="#000000" stroke="none">
<path d="M3107 5098 c-20 -17 -47 -81 -107 -253 -45 -126 -90 -252 -100 -280
-98 -263 -169 -486 -186 -585 -3 -14 -7 -33 -10 -42 -9 -31 -26 -131 -39 -233
-8 -65 -16 -224 -19 -368 l-2 -135 -50 -48 c-140 -137 -200 -287 -203 -510 -1
-65 -4 -120 -6 -122 -2 -2 -21 14 -43 36 -39 39 -39 41 -46 138 -7 96 -59 339
-77 358 -5 6 -9 17 -9 25 0 9 -24 66 -54 127 -152 316 -384 550 -694 704 -101
49 -739 270 -783 270 -46 0 -90 -51 -81 -95 49 -243 107 -493 134 -575 87
-268 271 -536 479 -699 96 -75 113 -87 202 -139 222 -128 457 -190 759 -201 9
-1 62 -47 117 -102 l101 -102 0 -933 c0 -514 -2 -934 -5 -934 -3 0 -41 18 -85
40 l-80 40 -1 103 c0 56 -2 127 -5 157 -37 539 -386 996 -899 1177 -38 13 -79
26 -90 29 -11 2 -45 9 -75 16 -84 18 -86 18 -230 22 -74 2 -162 0 -195 -5 -33
-5 -75 -12 -94 -14 -19 -3 -59 -13 -89 -21 -30 -9 -60 -17 -66 -18 -6 -2 -105
-33 -221 -71 -217 -71 -255 -92 -255 -137 1 -66 27 -87 170 -133 223 -72 524
-212 757 -351 219 -132 264 -165 816 -606 346 -277 350 -279 498 -351 l149
-71 0 -103 0 -103 85 0 85 0 0 619 0 619 158 117 c86 65 186 147 222 181 211
202 542 435 817 572 368 185 738 295 1188 353 112 14 152 30 165 65 14 36 3
81 -23 99 -18 11 -223 88 -337 125 -14 5 -104 36 -200 70 -332 117 -393 130
-590 125 -148 -3 -154 -4 -285 -41 -79 -22 -261 -104 -297 -133 -7 -6 -47 -37
-88 -70 -115 -90 -208 -203 -282 -341 -43 -79 -70 -152 -143 -385 -31 -99 -72
-227 -91 -285 l-34 -105 -76 -55 c-42 -30 -82 -61 -90 -68 -12 -12 -14 76 -14
632 1 675 3 707 46 789 7 15 21 40 30 57 8 16 41 53 72 82 71 66 167 165 193
198 63 81 119 160 119 169 0 6 4 11 8 11 4 0 13 12 20 28 6 15 21 43 33 62 84
134 177 437 195 630 8 93 8 285 0 405 -4 50 -9 119 -11 155 -13 207 -18 298
-21 320 -1 14 -2 34 -3 46 -2 32 -33 62 -72 69 -29 5 -41 2 -62 -17z"/>
</g>
</svg>
